# xmcd CD database file
#
# Track frame offsets:
#	150
#	20823
#	36903
#	49693
#	67892
#	87077
#	104558
#	120975
#	159933
#	177256
#	192500
#
# Disc length: 2825 seconds
#
# Revision: 0
# Processed by: cddbd v1.5PL3 Copyright (c) Steve Scherf et al.
# Submitted via: CDex 1.50beta10
#
DISCID=8b0b070b
DTITLE=Carol Fran and Clarence Hollimon - It's About Time
DYEAR=2000
DGENRE=Blues
TTITLE0=Texas Home
TTITLE1=Jumpin' With Gristle
TTITLE2=Come On Little Mama
TTITLE3=Booty Butt
TTITLE4=Put The Blame On Me
TTITLE5=Herky Jerky
TTITLE6=I Can't Go For That
TTITLE7=No One Will Listen
TTITLE8=Rock Bottom
TTITLE9=The Way I Used To Be
TTITLE10=You Got Troubles
EXTD=YEAR: 2000
EXTT0=
EXTT1=
EXTT2=
EXTT3=
EXTT4=
EXTT5=
EXTT6=
EXTT7=
EXTT8=
EXTT9=
EXTT10=
PLAYORDER=
